<svg width="22" height="25" viewBox="0 0 22 25" fill="none" xmlns="http://www.w3.org/2000/svg">
<g clip-path="url(#clip0_156_10831)">
<path d="M10.9989 0C10.1297 0 9.42747 0.698242 9.42747 1.5625V2.5C5.84265 3.22266 3.14176 6.37695 3.14176 10.1562V11.3965C3.14176 13.6133 2.3806 15.7666 0.990866 17.4951L0.25917 18.4082C-0.0256517 18.7598 -0.0796695 19.2432 0.116759 19.6484C0.313188 20.0537 0.725688 20.3125 1.17747 20.3125H20.8203C21.2721 20.3125 21.6846 20.0537 21.881 19.6484C22.0775 19.2432 22.0235 18.7598 21.7386 18.4082L21.0069 17.5C19.6172 15.7666 18.856 13.6133 18.856 11.3965V10.1562C18.856 6.37695 16.1552 3.22266 12.5703 2.5V1.5625C12.5703 0.698242 11.8681 0 10.9989 0ZM10.9989 4.6875C14.0386 4.6875 16.4989 7.13379 16.4989 10.1562V11.3965C16.4989 13.7354 17.1815 16.0156 18.4485 17.9688H3.54935C4.81631 16.0156 5.4989 13.7354 5.4989 11.3965V10.1562C5.4989 7.13379 7.95917 4.6875 10.9989 4.6875ZM14.1418 21.875H10.9989H7.85605C7.85605 22.7051 8.18506 23.501 8.77435 24.0869C9.36364 24.6729 10.1641 25 10.9989 25C11.8337 25 12.6342 24.6729 13.2235 24.0869C13.8127 23.501 14.1418 22.7051 14.1418 21.875Z" fill="#121212"/>
</g>
<defs>
<clipPath id="clip0_156_10831">
<rect width="22" height="25" fill="white"/>
</clipPath>
</defs>
</svg>
