<svg width="29" height="29" viewBox="0 0 29 29" fill="none" xmlns="http://www.w3.org/2000/svg">
<g clip-path="url(#clip0_168_22016)">
<path d="M9.52695 21.801C8.67734 21.4951 7.73145 21.6254 7.00078 22.1635C6.53633 22.5033 5.7377 23.0018 4.76914 23.4492C5.08633 22.6166 5.32988 21.6764 5.40918 20.6512C5.46582 19.9205 5.22227 19.1955 4.74082 18.6404C3.42109 17.1508 2.71875 15.4062 2.71875 13.5937C2.71875 9.09082 7.43691 4.53125 14.5 4.53125C21.5631 4.53125 26.2812 9.09082 26.2812 13.5937C26.2812 18.0967 21.5631 22.6562 14.5 22.6562C12.7102 22.6562 11.0279 22.3447 9.52695 21.801ZM1.48965 24.0043C1.39902 24.1572 1.30273 24.3102 1.20078 24.4631L1.18379 24.4914C1.09316 24.6217 1.00254 24.752 0.911914 24.8822C0.713672 25.1484 0.498438 25.409 0.271875 25.6469C0.0113281 25.9074 -0.0623047 26.2926 0.0792969 26.6324C0.220898 26.9723 0.549414 27.1932 0.917578 27.1932C1.20645 27.1932 1.49531 27.1762 1.78418 27.1479L1.82383 27.1422C2.07305 27.1139 2.32227 27.0799 2.57148 27.0346C2.6168 27.0289 2.66211 27.0176 2.70742 27.0062C3.71562 26.808 4.68418 26.4682 5.54512 26.0943C6.84219 25.5279 7.94668 24.8539 8.6207 24.3611C10.4219 25.0125 12.4156 25.375 14.517 25.375C22.526 25.375 29.017 20.1018 29.017 13.5937C29.017 7.08574 22.509 1.8125 14.5 1.8125C6.49102 1.8125 0 7.08574 0 13.5937C0 16.1482 1.00254 18.5102 2.70176 20.4416C2.59414 21.8293 2.05605 23.0641 1.48965 24.0043ZM8.15625 15.4062C8.63696 15.4062 9.09797 15.2153 9.43788 14.8754C9.77779 14.5355 9.96875 14.0745 9.96875 13.5937C9.96875 13.113 9.77779 12.652 9.43788 12.3121C9.09797 11.9722 8.63696 11.7812 8.15625 11.7812C7.67555 11.7812 7.21453 11.9722 6.87462 12.3121C6.53471 12.652 6.34375 13.113 6.34375 13.5937C6.34375 14.0745 6.53471 14.5355 6.87462 14.8754C7.21453 15.2153 7.67555 15.4062 8.15625 15.4062ZM16.3125 13.5937C16.3125 13.113 16.1215 12.652 15.7816 12.3121C15.4417 11.9722 14.9807 11.7812 14.5 11.7812C14.0193 11.7812 13.5583 11.9722 13.2184 12.3121C12.8785 12.652 12.6875 13.113 12.6875 13.5937C12.6875 14.0745 12.8785 14.5355 13.2184 14.8754C13.5583 15.2153 14.0193 15.4062 14.5 15.4062C14.9807 15.4062 15.4417 15.2153 15.7816 14.8754C16.1215 14.5355 16.3125 14.0745 16.3125 13.5937ZM20.8438 15.4062C21.3245 15.4062 21.7855 15.2153 22.1254 14.8754C22.4653 14.5355 22.6562 14.0745 22.6562 13.5937C22.6562 13.113 22.4653 12.652 22.1254 12.3121C21.7855 11.9722 21.3245 11.7812 20.8438 11.7812C20.363 11.7812 19.902 11.9722 19.5621 12.3121C19.2222 12.652 19.0312 13.113 19.0312 13.5937C19.0312 14.0745 19.2222 14.5355 19.5621 14.8754C19.902 15.2153 20.363 15.4062 20.8438 15.4062Z" fill="#121212"/>
</g>
<defs>
<clipPath id="clip0_168_22016">
<rect width="29" height="29" fill="white"/>
</clipPath>
</defs>
</svg>
