<svg width="102" height="31" viewBox="0 0 102 31" fill="none" xmlns="http://www.w3.org/2000/svg">
<path d="M9.37618 13.062C7.52818 17.304 7.78018 23.814 13.0722 23.814C14.7942 23.814 15.7182 22.932 16.2642 22.176C16.7682 21.042 17.3562 19.95 17.7762 18.732C16.1802 18.606 14.4162 18.606 12.1062 18.858C11.3922 17.976 12.1482 14.742 14.9202 14.532C18.9102 14.238 20.9262 14.868 23.8662 14.868C25.0002 14.868 26.2182 14.784 27.7722 14.532C28.6122 15.96 27.7722 18.606 25.6722 18.858C25.5042 18.858 25.2942 18.9 25.0842 18.9C24.8742 22.344 21.3462 25.242 23.0262 29.442C21.6402 29.988 20.2962 30.282 19.1202 30.282C16.9782 30.282 15.3822 29.274 15.1722 27.09C13.7442 28.77 11.4342 30.03 8.15818 29.946C0.808176 29.778 -2.25782 19.992 1.81618 11.298C5.30218 3.906 12.0642 0 18.3642 0C25.5462 0 29.4522 5.082 27.3942 9.366C26.5122 11.214 24.3282 11.634 22.7742 11.634C21.8082 11.634 21.0942 11.466 21.1362 11.34C21.7242 8.316 20.6322 5.544 17.7762 5.544C14.9622 5.586 11.2662 8.778 9.37618 13.062Z" fill="#121212"/>
<path d="M29.0362 25.368C29.0782 20.748 35.2102 13.818 33.3202 9.114C34.7062 8.526 36.0502 8.232 37.1842 8.232C39.5362 8.232 41.2162 9.45 41.1742 12.012C41.1322 16.758 35.2102 23.898 37.4782 23.898C42.0562 23.898 46.8862 13.23 47.4742 8.316C50.9182 8.442 53.7322 9.45 54.0262 10.836C54.9922 14.952 47.6002 24.696 49.4902 29.442C48.1042 29.988 46.8022 30.282 45.6262 30.282C43.2742 30.282 41.5942 29.064 41.6362 26.544C41.6362 25.956 41.7622 25.284 41.9302 24.57C39.5362 27.972 36.9322 30.24 34.2442 30.24C31.0942 30.24 28.9942 28.434 29.0362 25.368Z" fill="#121212"/>
<path d="M68.8894 14.658C65.4874 14.742 62.0014 26.88 63.0093 29.442C61.6233 29.988 60.3213 30.282 59.1453 30.282C56.7933 30.282 55.1133 29.064 55.1553 26.544C55.1973 22.176 61.0773 12.978 60.9933 8.316C64.4373 8.442 67.2514 9.576 67.5873 10.962C68.8894 9.324 70.4434 8.358 72.3754 8.358C75.1474 8.232 76.9113 9.702 76.9953 12.096C77.1633 16.002 70.9473 18.732 70.9893 18.06C70.9893 18.06 71.1573 14.658 68.8894 14.658Z" fill="#121212"/>
<path d="M76.4717 25.368C76.5137 20.748 82.6457 13.818 80.7557 9.114C82.1417 8.526 83.4857 8.232 84.6197 8.232C86.9717 8.232 88.6517 9.45 88.6097 12.012C88.5677 16.758 82.6457 23.898 84.9137 23.898C89.4917 23.898 94.3217 13.23 94.9097 8.316C98.3537 8.442 101.168 9.45 101.462 10.836C102.428 14.952 95.0357 24.696 96.9257 29.442C95.5397 29.988 94.2377 30.282 93.0617 30.282C90.7097 30.282 89.0297 29.064 89.0717 26.544C89.0717 25.956 89.1977 25.284 89.3657 24.57C86.9717 27.972 84.3677 30.24 81.6797 30.24C78.5297 30.24 76.4297 28.434 76.4717 25.368Z" fill="#121212"/>
</svg>
