<svg width="144" height="29" viewBox="0 0 144 29" fill="none" xmlns="http://www.w3.org/2000/svg">
<path d="M9.32098 28.348C2.32898 27.968 -0.635015 22.838 1.37898 15.352C3.77299 6.422 11.297 0.684 19.201 1.14C25.243 1.482 29.233 6.802 27.105 13.984C24.255 23.636 17.149 28.766 9.32098 28.348ZM10.765 23.902C14.185 23.864 17.605 19.19 18.973 15.656C20.873 10.602 20.721 5.928 17.605 5.928C14.185 5.966 10.613 10.982 9.47299 13.946C7.34499 19.494 7.61099 23.902 10.765 23.902Z" fill="#fff"/>
<path d="M33.3908 27.778C32.1368 28.272 30.9588 28.538 29.8948 28.538C27.7668 28.538 26.2468 27.436 26.2848 25.156C26.3228 21.204 33.5048 9.804 33.7708 1.406C36.2028 1.482 38.5588 2.204 39.4708 3.078C39.5088 3.116 39.5468 3.116 39.5468 3.154C42.9668 6.536 43.2708 12.008 44.4868 17.328C46.5768 12.388 49.1608 6.384 49.3128 1.406C52.4288 1.52 55.4308 2.622 55.4308 3.876C55.5448 11.438 47.2228 23.484 48.9328 27.778C47.6788 28.272 46.5008 28.538 45.4368 28.538C44.0308 28.538 42.9288 28.044 42.3208 27.056C39.7748 23.218 39.6228 17.404 38.1028 11.856C35.7848 18.164 32.2128 24.814 33.3908 27.778Z" fill="#fff"/>
<path d="M70.6327 13.984C71.2027 17.062 70.3287 19.304 68.3527 19.38C64.4767 19.57 61.8547 18.62 59.3087 18.62C58.2447 18.62 57.1807 18.81 56.0787 19.304C53.7607 15.922 54.7867 14.402 57.3327 13.68C58.0547 13.49 58.7387 13.414 59.3847 13.414C61.5127 13.414 63.5647 14.174 67.3647 14.174C68.3147 14.174 69.4167 14.098 70.6327 13.984Z" fill="#fff"/>
<path d="M88.9901 21.394C89.8261 24.396 87.812 28.576 84.43 28.804C81.504 29.032 78.54 28.88 74.664 28.5C72.802 28.348 71.5481 27.246 71.5861 25.156C71.6241 21.204 79.2241 8.664 79.4901 0.265999C82.6061 0.38 85.608 1.482 85.608 2.736C85.684 8.778 80.0981 18.43 78.7681 24.244C83.2141 23.408 88.8001 20.824 88.9901 21.394Z" fill="#fff"/>
<path d="M102.732 0.532C104.518 1.558 104.708 3.496 103.264 5.358C102.314 6.612 101.022 7.258 99.7305 7.258C99.0845 7.258 98.4765 7.106 97.8685 6.764C96.0445 5.7 95.8545 3.762 97.2985 1.9C98.2485 0.684 99.5405 0 100.794 0C101.478 0 102.124 0.19 102.732 0.532ZM95.0565 8.664C98.1725 8.778 100.68 9.69 100.984 10.944C101.82 14.668 95.1705 23.484 96.8805 27.778C95.6265 28.272 94.4485 28.538 93.3845 28.538C91.2565 28.538 89.7365 27.436 89.7745 25.156C89.8125 21.204 95.1325 12.882 95.0565 8.664Z" fill="#fff"/>
<path d="M115.542 14.516C115.656 14.136 115.542 13.984 115.314 13.984C114.136 13.984 109.842 17.29 107.904 21.546C106.878 23.826 106.498 26.182 107.144 27.778C105.89 28.272 104.712 28.538 103.648 28.538C101.52 28.538 99.9995 27.436 100.038 25.156C100.076 21.204 105.396 12.882 105.32 8.664C108.436 8.778 110.944 9.69 111.248 10.944C111.438 11.742 111.248 12.768 110.906 13.908C113.034 12.008 117.86 8.664 120.938 8.664C122.23 8.664 123.18 9.158 123.484 10.07C124.662 13.718 117.214 23.522 118.924 27.778C117.67 28.31 116.454 28.576 115.428 28.576C113.3 28.576 111.78 27.474 111.818 25.156C111.856 22.04 114.098 18.924 115.542 14.516Z" fill="#fff"/>
<path d="M133.951 23.826C136.649 23.788 138.549 22.762 140.145 21.394C141.931 22.192 137.941 28.424 131.519 28.424C124.679 28.766 121.943 24.434 123.387 19.038C124.831 13.604 130.037 8.702 136.877 8.702C141.779 8.512 144.515 12.008 142.653 15.884C140.867 19.608 134.483 21.736 130.113 21.546C130.569 22.99 131.861 23.826 133.951 23.826ZM135.623 12.578C133.039 12.616 131.215 15.998 130.417 18.05C132.887 17.746 137.333 16.834 137.333 14.098C137.333 13.034 136.687 12.578 135.623 12.578Z" fill="#fff"/>
</svg>
