<svg width="156" height="29" viewBox="0 0 156 29" fill="none" xmlns="http://www.w3.org/2000/svg">
<path d="M9.14911 28.348C2.15711 27.968 -0.80689 22.838 1.20711 15.352C3.60111 6.422 11.1251 0.684 19.0291 1.14C25.0711 1.482 29.0611 6.802 26.9331 13.984C24.0831 23.636 16.9771 28.766 9.14911 28.348ZM10.5931 23.902C14.0131 23.864 17.4331 19.19 18.8011 15.656C20.7011 10.602 20.5491 5.928 17.4331 5.928C14.0131 5.966 10.4411 10.982 9.30111 13.946C7.17311 19.494 7.43911 23.902 10.5931 23.902Z" fill="#15CA9F"/>
<path d="M36.7529 17.252C35.0809 21.432 33.4469 25.688 34.3209 27.854C33.0669 28.348 31.8889 28.614 30.8249 28.614C28.6969 28.614 27.1769 27.512 27.2149 25.232C27.2529 21.698 32.5729 11.742 33.6749 6.612C33.1429 6.84 32.6489 7.106 32.1929 7.448C30.2929 4.75 31.4709 2.546 33.2569 1.71C34.1309 1.292 35.4229 1.178 36.9049 1.178C40.1349 1.178 44.3909 1.862 47.6209 1.862C48.8749 1.862 49.9389 1.748 50.7749 1.482C51.5729 4.484 49.4449 6.65 46.0629 6.878C44.3529 7.03 41.3889 6.46 38.9569 6.194C39.4129 6.498 39.7169 6.84 39.7929 7.258C40.1349 8.626 39.2229 11.21 38.0449 14.136C40.1349 14.098 41.9969 13.946 45.3789 13.452C45.9869 15.238 45.0749 16.872 43.8969 17.214C42.9469 17.518 42.0349 17.632 41.1229 17.632C39.7929 17.632 38.3869 17.404 36.7529 17.252Z" fill="#15CA9F"/>
<path d="M56.0354 17.252C54.3634 21.432 52.7294 25.688 53.6034 27.854C52.3494 28.348 51.1714 28.614 50.1074 28.614C47.9794 28.614 46.4594 27.512 46.4974 25.232C46.5354 21.698 51.8554 11.742 52.9574 6.612C52.4254 6.84 51.9314 7.106 51.4754 7.448C49.5754 4.75 50.7534 2.546 52.5394 1.71C53.4134 1.292 54.7054 1.178 56.1874 1.178C59.4174 1.178 63.6734 1.862 66.9034 1.862C68.1574 1.862 69.2214 1.748 70.0574 1.482C70.8554 4.484 68.7274 6.65 65.3454 6.878C63.6354 7.03 60.6714 6.46 58.2394 6.194C58.6954 6.498 58.9994 6.84 59.0754 7.258C59.4174 8.626 58.5054 11.21 57.3274 14.136C59.4174 14.098 61.2794 13.946 64.6614 13.452C65.2694 15.238 64.3574 16.872 63.1794 17.214C62.2294 17.518 61.3174 17.632 60.4054 17.632C59.0754 17.632 57.6694 17.404 56.0354 17.252Z" fill="#15CA9F"/>
<path d="M82.8038 13.984C83.3738 17.062 82.4998 19.304 80.5238 19.38C76.6478 19.57 74.0258 18.62 71.4798 18.62C70.4158 18.62 69.3518 18.81 68.2498 19.304C65.9318 15.922 66.9578 14.402 69.5038 13.68C70.2258 13.49 70.9098 13.414 71.5558 13.414C73.6838 13.414 75.7358 14.174 79.5358 14.174C80.4858 14.174 81.5878 14.098 82.8038 13.984Z" fill="#15CA9F"/>
<path d="M101.161 21.394C101.997 24.396 99.9831 28.576 96.6011 28.804C93.6751 29.032 90.7111 28.88 86.8351 28.5C84.9731 28.348 83.7191 27.246 83.7571 25.156C83.7951 21.204 91.3951 8.664 91.6611 0.265999C94.7771 0.38 97.7791 1.482 97.7791 2.736C97.8551 8.778 92.2691 18.43 90.9391 24.244C95.3851 23.408 100.971 20.824 101.161 21.394Z" fill="#15CA9F"/>
<path d="M114.904 0.532C116.69 1.558 116.88 3.496 115.436 5.358C114.486 6.612 113.194 7.258 111.902 7.258C111.256 7.258 110.648 7.106 110.04 6.764C108.216 5.7 108.026 3.762 109.47 1.9C110.42 0.684 111.712 0 112.966 0C113.65 0 114.296 0.19 114.904 0.532ZM107.228 8.664C110.344 8.778 112.852 9.69 113.156 10.944C113.992 14.668 107.342 23.484 109.052 27.778C107.798 28.272 106.62 28.538 105.556 28.538C103.428 28.538 101.908 27.436 101.946 25.156C101.984 21.204 107.304 12.882 107.228 8.664Z" fill="#15CA9F"/>
<path d="M127.713 14.516C127.827 14.136 127.713 13.984 127.485 13.984C126.307 13.984 122.013 17.29 120.075 21.546C119.049 23.826 118.669 26.182 119.315 27.778C118.061 28.272 116.883 28.538 115.819 28.538C113.691 28.538 112.171 27.436 112.209 25.156C112.247 21.204 117.567 12.882 117.491 8.664C120.607 8.778 123.115 9.69 123.419 10.944C123.609 11.742 123.419 12.768 123.077 13.908C125.205 12.008 130.031 8.664 133.109 8.664C134.401 8.664 135.351 9.158 135.655 10.07C136.833 13.718 129.385 23.522 131.095 27.778C129.841 28.31 128.625 28.576 127.599 28.576C125.471 28.576 123.951 27.474 123.989 25.156C124.027 22.04 126.269 18.924 127.713 14.516Z" fill="#15CA9F"/>
<path d="M146.122 23.826C148.82 23.788 150.72 22.762 152.316 21.394C154.102 22.192 150.112 28.424 143.69 28.424C136.85 28.766 134.114 24.434 135.558 19.038C137.002 13.604 142.208 8.702 149.048 8.702C153.95 8.512 156.686 12.008 154.824 15.884C153.038 19.608 146.654 21.736 142.284 21.546C142.74 22.99 144.032 23.826 146.122 23.826ZM147.794 12.578C145.21 12.616 143.386 15.998 142.588 18.05C145.058 17.746 149.504 16.834 149.504 14.098C149.504 13.034 148.858 12.578 147.794 12.578Z" fill="#15CA9F"/>
</svg>
