<svg width="6" height="10" viewBox="0 0 6 10" fill="none" xmlns="http://www.w3.org/2000/svg">
<path d="M5.01381 7.81891L2.3337 4.97187L5.0102 2.18487L5.11107 2.08432L5.13288 2.06258L5.14877 2.03619C5.16983 2.00119 5.18873 1.9675 5.20477 1.93551L5.21982 1.90551L5.22642 1.8726L5.24511 1.77945L5.25 1.7551V1.73027V1.73005V1.72983V1.72961V1.72939V1.72917V1.72895V1.72873V1.72851V1.72829V1.72807V1.72785V1.72762V1.7274V1.72718V1.72696V1.72674V1.72651V1.72629V1.72607V1.72584V1.72562V1.72539V1.72517V1.72494V1.72472V1.72449V1.72427V1.72404V1.72381V1.72359V1.72336V1.72313V1.72291V1.72268V1.72245V1.72222V1.72199V1.72176V1.72153V1.7213V1.72107V1.72084V1.72061V1.72038V1.72015V1.71992V1.71969V1.71946V1.71923V1.71899V1.71876V1.71853V1.71829V1.71806V1.71783V1.71759V1.71736V1.71712V1.71689V1.71665V1.71642V1.71618V1.71595V1.71571V1.71547V1.71524V1.715V1.71476V1.71452V1.71429V1.71405V1.71381V1.71357V1.71333V1.71309V1.71285V1.71261V1.71237V1.71213V1.71189V1.71165V1.71141V1.71116V1.71092V1.71068V1.71044V1.71019V1.70995V1.70971V1.70946V1.70922V1.70898V1.70873V1.70849V1.70824V1.708V1.70775V1.7075V1.70726V1.70701V1.70676V1.70652V1.70627V1.70602V1.70577V1.70552V1.70528V1.70503V1.70478V1.70453V1.70428V1.70403V1.70378V1.70353V1.70328V1.70303V1.70277V1.70252V1.70227V1.70202V1.70177V1.70151V1.70126V1.70101V1.70075V1.7005V1.70024V1.69999V1.69973V1.69948V1.69922V1.69897V1.69871V1.69846V1.6982V1.69794V1.69769V1.69743V1.69717V1.69691V1.69665V1.6964V1.69614V1.69588V1.69562V1.69536V1.6951V1.69484V1.69458V1.69432V1.69406V1.69379V1.69353V1.69327V1.69301V1.69275V1.69248V1.69222V1.69196V1.69169V1.69143V1.69116V1.6909V1.69064V1.69037V1.69011V1.68984V1.68957V1.68931V1.68904V1.68877V1.68851V1.68824V1.68797V1.6877V1.68744V1.68717V1.6869V1.68663V1.68636V1.68609V1.68582V1.68555V1.68528V1.68501V1.68474V1.68447V1.68419V1.68392V1.68365V1.68338V1.68311V1.68283V1.68256V1.68229V1.68201V1.68174V1.68146V1.68119V1.68091V1.68064V1.68036V1.68009V1.67981V1.67953V1.67926V1.67898V1.6787V1.67842V1.67815V1.67787V1.67759V1.67731V1.67703V1.67675V1.67647V1.67619V1.67591V1.67563V1.67535V1.67507V1.67479V1.67451V1.67423V1.67394V1.67366V1.67338V1.6731V1.67281V1.67253V1.67225V1.67196V1.67168V1.67139V1.67111V1.67082V1.67054V1.67025V1.66996V1.66968V1.66939V1.6691V1.66882V1.66853V1.66824V1.66795V1.66767V1.66738V1.66709V1.6668V1.66651V1.66622V1.66593V1.66564V1.66535V1.66506V1.66477V1.66447V1.66418V1.66389V1.6636V1.6633V1.66301V1.66272V1.66243V1.66213V1.66184V1.66154V1.66125V1.66095V1.66066V1.66036V1.66007V1.65977V1.65947V1.65918V1.65888V1.65858V1.65829V1.65799V1.65769V1.65739V1.65709V1.65679V1.65649V1.6562V1.6559V1.6556V1.6553V1.65499V1.65469V1.65439V1.65409V1.65379V1.65349V1.65318V1.65288V1.65258V1.65228V1.65197V1.65167V1.65136V1.65106V1.65076V1.65045V1.65015V1.64984V1.64953V1.64923V1.64892V1.64862V1.64831V1.648V1.64769V1.64739V1.64708V1.64677V1.64646V1.64615V1.64584V1.64553V1.64522V1.64491V1.6446V1.64429V1.64398V1.64367V1.64336V1.64305V1.64274V1.64242V1.64211V1.6418V1.64149V1.64117V1.64086V1.64054V1.64023V1.63992V1.6396V1.63929V1.63897V1.63865V1.63834V1.63802V1.63771V1.63739V1.63707V1.63675V1.63644V1.63612V1.6358V1.63548V1.63516V1.63484V1.63452V1.6342V1.63388V1.63356V1.63324V1.63292V1.6326V1.63228V1.63196V1.63164V1.63131V1.63099V1.63067V1.63035V1.63002V1.6297V1.62938V1.62905V1.62873V1.6284V1.62808V1.62775V1.62743V1.6271V1.62677V1.62645V1.62612V1.62579V1.62547V1.62514V1.62481V1.62448V1.62415V1.62382V1.6235V1.62317V1.62284V1.62251V1.62218V1.62185V1.62152V1.62118V1.62085V1.62052V1.62019V1.61986V1.61952V1.61919V1.61886V1.61853V1.61819V1.61786V1.61752V1.61719V1.61685V1.61652V1.61618V1.61585V1.61551V1.61518V1.61484V1.6145V1.61417V1.61383V1.61349V1.61315V1.61282V1.61248V1.61214V1.6118V1.61146V1.61112V1.61078V1.61044V1.6101V1.60976V1.60942V1.60908V1.60874V1.60839V1.60805V1.60771V1.60737V1.60702V1.60668V1.60634V1.60599V1.60565V1.6053V1.60496V1.60461V1.60427V1.60392V1.60358V1.60323V1.60289V1.60254V1.60219V1.60184V1.6015V1.60115V1.6008V1.60045V1.6001V1.59975V1.59941V1.59906V1.59871V1.59836V1.59801V1.59766V1.5973V1.59695V1.5966V1.59625V1.5959V1.59555V1.59519V1.59484V1.59449V1.59413V1.59378V1.59343V1.59307V1.59272V1.59236V1.59201V1.59165V1.59129V1.59094V1.59058V1.59023V1.58987V1.58951V1.58915V1.5888V1.58844V1.58808V1.58772V1.58736V1.587V1.58664V1.58628V1.58592V1.58556V1.5852V1.58484V1.58448V1.58412V1.58376V1.5834V1.58303V1.58267V1.58231V1.58194V1.58158V1.58122V0.696246C5.25 0.630706 5.2477 0.569194 5.24046 0.518716C5.23704 0.494822 5.23078 0.460233 5.21694 0.424983L5.21682 0.424677C5.20912 0.405071 5.16892 0.302623 5.05079 0.263373C4.94582 0.228498 4.85951 0.271516 4.84069 0.280895L4.84059 0.280945C4.80847 0.296955 4.78172 0.316977 4.76322 0.33196C4.72504 0.362878 4.68346 0.404213 4.64101 0.449704L0.952536 4.27514C0.918306 4.30934 0.887116 4.34301 0.861106 4.37541C0.837073 4.40536 0.806577 4.44742 0.786677 4.49701L1.01869 4.59012L0.786677 4.49701C0.76664 4.54694 0.75946 4.6003 0.755806 4.63854C0.751657 4.68196 0.75 4.73172 0.75 4.78574V5.21426C0.75 5.26828 0.751657 5.31804 0.755806 5.36147C0.75946 5.3997 0.76664 5.45306 0.786677 5.50299L1.01806 5.41013L0.786677 5.50299C0.806577 5.55258 0.837074 5.59464 0.861106 5.62459C0.887116 5.65699 0.918306 5.69066 0.952536 5.72486L4.64099 9.55028C4.68344 9.59578 4.72504 9.63712 4.76322 9.66804C4.78172 9.68302 4.80847 9.70305 4.84059 9.71906L4.84069 9.7191C4.85951 9.72849 4.94582 9.7715 5.05079 9.73663C5.16892 9.69738 5.20912 9.59493 5.21682 9.57533L5.21694 9.57502C5.23078 9.53977 5.23704 9.50518 5.24046 9.48128C5.2477 9.43081 5.25 9.36929 5.25 9.30375V8.41878V8.41842V8.41806V8.41769V8.41733V8.41697V8.4166V8.41624V8.41588V8.41552V8.41516V8.4148V8.41444V8.41408V8.41372V8.41336V8.413V8.41264V8.41228V8.41192V8.41156V8.4112V8.41085V8.41049V8.41013V8.40977V8.40942V8.40906V8.40871V8.40835V8.40799V8.40764V8.40728V8.40693V8.40658V8.40622V8.40587V8.40551V8.40516V8.40481V8.40446V8.4041V8.40375V8.4034V8.40305V8.4027V8.40235V8.40199V8.40164V8.40129V8.40094V8.40059V8.40025V8.3999V8.39955V8.3992V8.39885V8.3985V8.39816V8.39781V8.39746V8.39712V8.39677V8.39642V8.39608V8.39573V8.39539V8.39504V8.3947V8.39435V8.39401V8.39366V8.39332V8.39298V8.39263V8.39229V8.39195V8.39161V8.39126V8.39092V8.39058V8.39024V8.3899V8.38956V8.38922V8.38888V8.38854V8.3882V8.38786V8.38752V8.38719V8.38685V8.38651V8.38617V8.38583V8.3855V8.38516V8.38482V8.38449V8.38415V8.38382V8.38348V8.38315V8.38281V8.38248V8.38214V8.38181V8.38147V8.38114V8.38081V8.38048V8.38014V8.37981V8.37948V8.37915V8.37882V8.37849V8.37815V8.37782V8.37749V8.37716V8.37683V8.3765V8.37618V8.37585V8.37552V8.37519V8.37486V8.37453V8.37421V8.37388V8.37355V8.37323V8.3729V8.37257V8.37225V8.37192V8.3716V8.37127V8.37095V8.37063V8.3703V8.36998V8.36965V8.36933V8.36901V8.36869V8.36836V8.36804V8.36772V8.3674V8.36708V8.36676V8.36644V8.36612V8.3658V8.36548V8.36516V8.36484V8.36452V8.3642V8.36388V8.36356V8.36325V8.36293V8.36261V8.3623V8.36198V8.36166V8.36135V8.36103V8.36072V8.3604V8.36009V8.35977V8.35946V8.35914V8.35883V8.35852V8.3582V8.35789V8.35758V8.35726V8.35695V8.35664V8.35633V8.35602V8.35571V8.3554V8.35509V8.35478V8.35447V8.35416V8.35385V8.35354V8.35323V8.35292V8.35261V8.35231V8.352V8.35169V8.35139V8.35108V8.35077V8.35047V8.35016V8.34985V8.34955V8.34924V8.34894V8.34864V8.34833V8.34803V8.34772V8.34742V8.34712V8.34682V8.34651V8.34621V8.34591V8.34561V8.34531V8.34501V8.34471V8.34441V8.3441V8.34381V8.34351V8.34321V8.34291V8.34261V8.34231V8.34201V8.34171V8.34142V8.34112V8.34082V8.34053V8.34023V8.33993V8.33964V8.33934V8.33905V8.33875V8.33846V8.33816V8.33787V8.33758V8.33728V8.33699V8.3367V8.3364V8.33611V8.33582V8.33553V8.33524V8.33494V8.33465V8.33436V8.33407V8.33378V8.33349V8.3332V8.33291V8.33262V8.33234V8.33205V8.33176V8.33147V8.33118V8.3309V8.33061V8.33032V8.33004V8.32975V8.32946V8.32918V8.32889V8.32861V8.32832V8.32804V8.32775V8.32747V8.32719V8.3269V8.32662V8.32634V8.32606V8.32577V8.32549V8.32521V8.32493V8.32465V8.32437V8.32409V8.32381V8.32353V8.32325V8.32297V8.32269V8.32241V8.32213V8.32185V8.32158V8.3213V8.32102V8.32074V8.32047V8.32019V8.31991V8.31964V8.31936V8.31909V8.31881V8.31854V8.31826V8.31799V8.31772V8.31744V8.31717V8.3169V8.31662V8.31635V8.31608V8.31581V8.31553V8.31526V8.31499V8.31472V8.31445V8.31418V8.31391V8.31364V8.31337V8.3131V8.31283V8.31256V8.3123V8.31203V8.31176V8.31149V8.31123V8.31096V8.31069V8.31043V8.31016V8.3099V8.30963V8.30937V8.3091V8.30884V8.30857V8.30831V8.30804V8.30778V8.30752V8.30725V8.30699V8.30673V8.30647V8.30621V8.30594V8.30568V8.30542V8.30516V8.3049V8.30464V8.30438V8.30412V8.30386V8.30361V8.30335V8.30309V8.30283V8.30257V8.30231V8.30206V8.3018V8.30154V8.30129V8.30103V8.30078V8.30052V8.30027V8.30001V8.29976V8.2995V8.29925V8.29899V8.29874V8.29849V8.29823V8.29798V8.29773V8.29748V8.29723V8.29697V8.29672V8.29647V8.29622V8.29597V8.29572V8.29547V8.29522V8.29497V8.29472V8.29448V8.29423V8.29398V8.29373V8.29348V8.29324V8.29299V8.29274V8.2925V8.29225V8.29201V8.29176V8.29151V8.29127V8.29103V8.29078V8.29054V8.29029V8.29005V8.28981V8.28956V8.28932V8.28908V8.28884V8.28859V8.28835V8.28811V8.28787V8.28763V8.28739V8.28715V8.28691V8.28667V8.28643V8.28619V8.28595V8.28572V8.28548V8.28524V8.285V8.28476V8.28453V8.28429V8.28405V8.28382V8.28358V8.28335V8.28311V8.28288V8.28264V8.28241V8.28217V8.28194V8.28171V8.28147V8.28124V8.28101V8.28078V8.28054V8.28031V8.28008V8.27985V8.27962V8.27939V8.27916V8.27893V8.2787V8.27847V8.27824V8.27801V8.27778V8.27755V8.27732V8.2771V8.27687V8.27664V8.27641V8.27619V8.27596V8.27573V8.27551V8.27528V8.27506V8.27483V8.27461V8.27438V8.27416V8.27394V8.27371V8.27349V8.27327V8.27304V8.27282V8.2726V8.27238V8.27215V8.27193V8.27171V8.27149V8.27127V8.27105V8.27083V8.27061V8.27039V8.27017V8.26995V8.26974V8.24898L5.24658 8.22851C5.23971 8.18743 5.23222 8.14932 5.2238 8.11576L5.2171 8.08908L5.20477 8.06449C5.18182 8.01874 5.15185 7.97569 5.1202 7.93626L5.11153 7.92546L5.10172 7.91568C5.08325 7.89726 5.05678 7.86849 5.02133 7.82727L5.02152 7.8271L5.01381 7.81891Z" fill="white" stroke="white" stroke-width="0.5"/>
</svg>
